<svg width="64" height="24" viewBox="0 0 64 24" fill="none" xmlns="http://www.w3.org/2000/svg">
<g clip-path="url(#clip0_138_1007)">
<path d="M10.1243 23.996C10.2033 23.6869 10.2989 23.3823 10.4109 23.0836C10.6025 22.4359 10.6262 22.3398 10.7695 21.692C11.007 20.5643 10.9849 20.6589 11.007 19.6765C11.007 18.8818 11.007 18.8126 10.9595 18.5726C10.84 17.8526 10.5289 17.1572 10.0515 16.6533C9.49726 16.0532 8.92723 15.7894 8.06743 15.7409C7.63674 15.7171 7.06276 15.6209 6.77616 15.5025C6.53215 15.4203 6.2994 15.3076 6.08341 15.1671C5.65272 14.9032 5.15078 14.3032 5.05419 14.0147L5.03044 13.967L5.07794 13.9909L5.39146 14.3056C5.55851 14.4494 5.72635 14.5933 5.79761 14.641C6.15321 14.8303 6.53047 14.9755 6.92104 15.0733C7.07026 15.1063 7.2227 15.1223 7.37548 15.121C7.65608 15.1246 7.93637 15.1007 8.21232 15.0495C8.52266 15.0256 8.81005 14.9772 8.83381 14.9772C9.00086 14.9772 9.71814 15.4333 10.1243 15.7719C10.8627 16.4052 11.3538 17.2806 11.5106 18.2428C11.5643 18.7128 11.5805 19.1864 11.5589 19.659C11.4868 20.4268 11.224 21.4345 10.8653 22.3461C10.555 23.156 10.1512 24.0676 10.1243 23.996ZM14.0448 23.7314C13.782 23.1321 13.375 22.1482 13.2531 21.7644C12.919 20.7566 12.7781 20.0604 12.7781 19.2927C12.7535 18.5965 12.8018 18.1649 12.9689 17.6372C13.2166 16.8653 13.6815 16.1818 14.3077 15.6694C14.6663 15.3809 15.3591 14.9732 15.5024 14.9732C15.5269 14.9732 15.8135 15.0217 16.1001 15.0455C16.384 15.0969 16.6722 15.1209 16.9607 15.117C17.3842 15.0992 17.7994 14.9931 18.1799 14.8055C18.5148 14.6616 18.6549 14.5671 18.993 14.2293C19.1363 14.0854 19.2796 13.9654 19.2796 13.9654C19.3033 13.9893 19.2075 14.1578 19.1363 14.2778C18.9656 14.5054 18.7805 14.7217 18.5821 14.9255C18.2415 15.2163 17.842 15.4292 17.4112 15.5494C17.0367 15.6541 16.6521 15.7183 16.264 15.7409C15.8497 15.7513 15.4422 15.8496 15.0685 16.0294C14.2079 16.461 13.5144 17.5172 13.3473 18.6449C13.3236 18.8126 13.3236 19.0288 13.3236 19.5804C13.3236 20.5166 13.3236 20.5643 13.5611 21.7644C13.6452 22.2209 13.7651 22.67 13.9197 23.1075C14.1105 23.6837 14.2063 23.9475 14.1826 23.996C14.1826 24.0199 14.1105 23.8999 14.0393 23.7314H14.0448ZM9.76564 23.4675C9.77741 23.3948 9.79353 23.3229 9.81394 23.2521C9.86144 23.0836 9.86144 23.0137 9.86144 22.3644C9.83769 21.6682 9.83769 21.6443 9.7894 21.4282C9.66985 20.9243 9.4553 20.492 9.04836 19.8442C8.85756 19.5565 8.85756 19.5565 8.90506 19.5804C9.07233 19.7333 9.22452 19.902 9.3595 20.0842C9.56377 20.3534 9.73993 20.6428 9.88519 20.9481C10.1003 21.3477 10.2229 21.7907 10.2438 22.2444V22.5082L10.2201 22.4121C10.1963 22.3398 10.1726 22.3159 10.148 22.3159C10.1235 22.3159 10.1243 22.3398 10.1005 22.4359C10.053 22.8436 9.88519 23.3721 9.7894 23.4691C9.74189 23.4922 9.74189 23.4922 9.76564 23.4675ZM14.523 23.4675C14.4272 23.3475 14.3077 22.9636 14.2356 22.5798C14.1881 22.2682 14.1644 22.2444 14.1161 22.4121L14.0686 22.5321L14.0923 22.2682C14.0891 21.9896 14.1377 21.7128 14.2356 21.452C14.3552 21.0205 14.7376 20.3727 15.0962 19.9166C15.2158 19.7727 15.4311 19.5565 15.4311 19.5804C15.4549 19.5804 15.3828 19.6765 15.3116 19.7965C14.9054 20.4204 14.6901 20.8766 14.5705 21.3559C14.4747 21.6682 14.4747 21.812 14.4747 22.4598C14.4747 23.0121 14.4747 23.0836 14.523 23.276C14.5468 23.396 14.5705 23.4922 14.5705 23.4922C14.558 23.4787 14.5412 23.4699 14.523 23.4675ZM10.3396 20.8766C10.3485 20.4495 10.3084 20.0229 10.2201 19.605C10.1005 19.1496 9.95724 18.8897 9.71814 18.6457C9.5503 18.4773 9.48063 18.4296 9.02461 18.1895C7.73412 17.4933 6.89729 16.8695 6.49114 16.3179C6.3233 16.1017 6.2283 15.8617 6.2283 15.7417C6.25205 15.694 6.25205 15.7179 6.39535 15.9102C6.58694 16.1486 6.61069 16.1979 6.92104 16.387C7.19719 16.5994 7.49338 16.7842 7.80538 16.9386C8.2889 17.1429 8.78374 17.3191 9.28745 17.4663C9.88519 17.6587 10.0792 17.7302 10.1963 17.7787C10.4109 17.8987 10.6714 18.3302 10.7941 18.7626C10.8326 18.9682 10.8485 19.1774 10.8416 19.3864C10.8416 19.7942 10.8416 19.8418 10.8178 19.8418C10.7941 19.8418 10.7941 19.8418 10.6745 19.365L10.6025 19.0534L10.5787 19.725C10.5787 20.4212 10.555 20.6851 10.4829 21.0451C10.459 21.1358 10.4269 21.2241 10.3871 21.309L10.3634 21.4051L10.3396 20.8766ZM13.9514 21.332C13.9039 21.2605 13.8556 21.0205 13.8081 20.8552C13.7598 20.5198 13.7598 20.3036 13.7361 19.7036V19.0558L13.6347 19.392C13.5397 19.8474 13.5397 19.8474 13.4914 19.8474C13.4677 19.8474 13.4677 19.7997 13.4677 19.4159C13.4914 19.0081 13.4914 18.939 13.5397 18.7435C13.6593 18.3119 13.9221 17.9042 14.1612 17.7604C14.2808 17.7119 14.5673 17.6157 15.0693 17.4719C15.564 17.321 16.0508 17.1449 16.5276 16.9442C16.8157 16.7925 17.0948 16.6242 17.3637 16.4403C17.6511 16.2241 17.7706 16.128 17.8901 15.9634C17.9614 15.8911 18.0097 15.7957 18.0572 15.7473L18.1047 15.6996L18.0809 15.7957C18.0572 16.0342 17.8901 16.2996 17.6059 16.6112C17.1309 17.115 16.4112 17.5951 15.3353 18.1713C14.8603 18.4351 14.7613 18.5067 14.5705 18.699C14.3876 18.8943 14.2564 19.1326 14.1889 19.392C14.0456 19.8236 13.9973 20.1868 13.9973 20.9275C13.9973 21.1913 13.9736 21.4043 13.9736 21.4043C13.9711 21.379 13.9636 21.3544 13.9514 21.332ZM10.0792 20.5373C9.96373 20.4023 9.85891 20.2585 9.76564 20.1073C9.47905 19.6996 9.19245 19.3396 9.02461 19.2196C8.90962 19.1404 8.78984 19.0684 8.66596 19.0042C8.54642 18.9319 8.33186 18.788 8.23607 18.7157C7.99855 18.548 7.42298 17.9718 7.25593 17.7564C7.16014 17.6118 7.01842 17.3479 7.01842 17.3002C7.01842 17.2764 7.09047 17.3479 7.44911 17.6602C7.63991 17.8041 7.85526 17.9718 7.92413 18.0441C8.28278 18.308 8.61767 18.4757 8.85676 18.4995L8.95256 18.5241L9.09586 18.6918C9.19173 18.8334 9.29534 18.9695 9.40621 19.0995C9.6936 19.508 9.9327 19.8943 10.0277 20.1796C10.0555 20.2534 10.0875 20.3256 10.1235 20.3958C10.1429 20.4411 10.1511 20.4905 10.1472 20.5396V20.6358L10.0792 20.5373ZM14.1667 20.5373C14.1752 20.4872 14.1912 20.4386 14.2142 20.3934C14.2506 20.3234 14.2826 20.2512 14.31 20.1772C14.4296 19.841 14.6204 19.5057 15.0511 18.9295C15.3614 18.5218 15.3852 18.5218 15.4572 18.5218C15.5332 18.5126 15.6065 18.488 15.6726 18.4494C15.9829 18.3533 16.2703 18.1617 16.8198 17.7055C16.9868 17.5617 17.1784 17.394 17.2259 17.3455C17.3217 17.2978 17.3217 17.2978 17.2979 17.3455C17.1784 17.754 16.2941 18.6418 15.6726 19.0018C15.5553 19.0552 15.4432 19.1193 15.3377 19.1933C15.1706 19.3133 14.9078 19.6257 14.5729 20.1049C14.1644 20.6843 14.1644 20.6636 14.1644 20.5404L14.1667 20.5373ZM13.3299 15.8577C13.3299 15.7931 13.3378 15.7288 13.3537 15.6662C13.402 15.5224 13.402 15.4023 13.4257 15.0423C13.4257 14.5146 13.402 14.2476 13.3299 13.9146C13.1866 13.2668 12.995 12.8583 12.2302 11.6829C11.8953 11.179 11.7045 10.819 11.7283 10.7952C11.818 10.7692 11.9058 10.7371 11.9911 10.699C12.1582 10.6267 12.2286 10.579 12.2286 10.5551C12.1843 10.5112 12.1364 10.4711 12.0853 10.4351C12.0389 10.4024 11.9984 10.3618 11.9658 10.3151C12.0423 10.1947 12.1303 10.0821 12.2286 9.97894C12.3719 9.81125 12.4915 9.6674 12.4662 9.6674C12.4662 9.64276 12.1796 9.7874 12.0117 9.85893C11.5581 10.1466 11.1511 10.5067 11.1511 10.6751C11.1511 10.699 11.2232 10.8905 11.2952 11.1067C11.3673 11.3229 11.4623 11.5629 11.486 11.663C11.5423 11.8153 11.5587 11.9795 11.5335 12.1399C11.5335 12.4284 11.5335 12.4522 11.486 12.5722C11.4407 12.6648 11.3755 12.7463 11.2952 12.8106C11.2707 12.8106 11.2707 12.8106 11.319 12.7145C11.4623 12.2376 11.3665 11.659 11.0561 11.3229C10.9211 11.1878 10.7438 11.1036 10.5542 11.0844C10.4101 11.0606 10.3863 11.0606 9.90815 11.1568L9.86065 11.1806L9.90815 11.1083C9.95782 11.0663 10.0147 11.0337 10.076 11.0121C10.2043 10.956 10.3067 10.8532 10.3626 10.7244C10.4101 10.6283 10.5779 10.486 10.817 10.2929C11.6087 9.66898 12.2746 9.28512 12.7528 9.23664C13.1114 9.18895 13.4463 9.30896 13.5896 9.59666C13.6616 9.71667 13.6616 9.76436 13.5896 9.69283C13.4225 9.54898 13.1352 9.59666 12.729 9.86052C12.587 9.95469 12.4583 10.0678 12.3466 10.1967C12.3229 10.2444 12.3229 10.2682 12.3704 10.3167C12.4187 10.4129 12.6079 10.5806 12.7773 10.6767C12.8788 10.7343 12.9954 10.7592 13.1114 10.7483C13.2016 10.7539 13.2917 10.7375 13.3742 10.7006C13.3988 10.7006 13.4463 10.6767 13.4463 10.7006C13.47 10.7006 13.47 10.7483 13.47 10.8206C13.47 10.9167 13.47 10.9406 13.4225 10.9644C13.3267 11.0368 12.9919 11.0606 12.6308 11.0121L12.3442 10.9883V11.0606C12.3709 11.154 12.4112 11.2429 12.4638 11.3245C12.6449 11.6719 12.8698 11.9946 13.1328 12.2845C13.3006 12.4522 13.3244 12.4999 13.4202 12.7614C13.5722 13.2504 13.6523 13.7591 13.6577 14.2714C13.6577 14.8468 13.5619 15.3745 13.4423 15.663C13.375 15.7894 13.3275 15.8848 13.3275 15.8609L13.3299 15.8577ZM7.94947 14.2261C6.96933 14.1299 5.77386 13.7222 4.81747 13.1707C4.31966 12.8503 3.85523 12.4805 3.43119 12.0668C3.24039 11.8506 2.858 11.3467 2.59436 10.9628C2.40356 10.6751 2.21196 10.3151 2.23651 10.2913C2.23651 10.2666 2.35605 10.3628 2.49935 10.5067C2.92878 10.9142 3.39261 11.2835 3.88563 11.6106C4.17223 11.7791 4.72247 12.0668 4.81747 12.0874C4.88952 12.1113 4.88952 12.1113 4.86577 12.0636C4.84202 12.0397 4.65042 11.8252 4.43508 11.5867C3.81755 10.9676 3.38369 10.3898 3.0488 9.71826C2.59436 8.73435 2.30776 7.84661 2.26026 7.0304C2.23651 6.79197 2.23651 6.69501 2.28401 6.23564C2.30776 5.94794 2.33151 5.68408 2.33151 5.65945C2.35605 5.61176 2.35605 5.6356 2.47481 5.89787C2.55786 6.15061 2.65379 6.3989 2.7622 6.64176C2.953 7.17028 2.97754 7.26565 3.1446 7.57799C3.50324 8.22571 3.90938 8.82575 3.95689 8.77727C3.95689 8.77727 3.88563 8.51341 3.78984 8.22571C3.47949 7.29028 3.43119 6.9541 3.40744 6.04252C3.40744 5.37016 3.43119 5.05861 3.50324 4.62627C3.60243 4.11855 3.74629 3.62068 3.93314 3.13849C4.05506 2.80787 4.31553 2.27936 4.38758 2.20783L4.43508 2.15935L4.41133 2.20783C4.41133 2.23167 4.36382 2.42321 4.31553 2.61554C4.12473 3.41029 4.10098 3.81562 4.10098 4.75104C4.10532 5.25878 4.16129 5.76475 4.26803 6.26108C4.36382 6.71727 4.48337 7.10113 4.55463 7.10113V7.02881C4.55463 6.71727 4.79214 5.94953 5.08032 5.15716C5.39146 4.41327 5.91715 3.47785 6.34705 2.92549C6.49035 2.73396 7.25514 1.96622 7.51799 1.72621C7.80459 1.46235 8.25903 1.17385 8.64142 0.931452C8.95335 0.767733 9.71814 0.383866 10.053 0.238426C10.3396 0.142261 10.5787 0.0460958 10.7941 0H10.8653L10.8178 0.0476853C10.7941 0.0723227 10.65 0.167693 10.5067 0.263859C10.3634 0.360024 10.1963 0.476853 10.1243 0.527717C9.2162 1.32009 8.73801 1.82794 8.25982 2.49553C7.5325 3.52029 7.03498 4.69106 6.80149 5.92728C6.73244 6.33199 6.70063 6.74223 6.70649 7.15279C6.70039 7.70941 6.75642 8.26496 6.87354 8.80906C7.00618 9.46259 7.18989 10.1046 7.42298 10.7292C7.56707 11.0654 7.89801 11.7624 8.16402 12.2647C8.40153 12.697 8.54642 12.9609 8.54642 12.9847C8.52266 12.9847 8.23607 12.6732 8.09277 12.4808C7.73412 12.004 7.11263 11.0415 6.84979 10.513C6.40644 9.64884 6.11528 8.71422 5.9892 7.75045C5.94091 7.29505 5.91715 6.31115 5.9892 5.90264C6.08347 5.196 6.28562 4.50816 6.58852 3.8633C6.68353 3.67097 6.75557 3.52712 6.73182 3.52712C6.70807 3.50328 6.51648 3.74329 6.37318 3.95947C5.84308 4.72608 5.46934 5.59042 5.2735 6.50268C5.10645 7.12656 5.0819 7.39042 5.05815 8.33062V9.09835L4.9869 9.02603C4.86735 8.93066 4.67576 8.64216 4.46041 8.16213C4.12631 7.5144 4.00676 7.32287 4.03052 7.49056C4.07802 7.75442 4.17382 8.04689 4.46041 8.69064C4.72405 9.31452 4.91485 9.69839 5.15395 9.96225C5.22599 10.0346 5.29725 10.1299 5.321 10.1538L5.36929 10.2261L5.20145 10.2023C4.91485 10.1784 4.7478 10.1299 4.36541 9.93841C4.23356 9.8665 4.09768 9.80229 3.95847 9.74608L3.88722 9.72223L3.98301 9.88993C4.26961 10.2984 4.86735 10.9938 5.4168 11.6177C5.94249 12.1741 6.13408 12.3616 6.39693 12.5539C6.92262 12.9378 6.99467 12.9855 6.99467 13.0093C6.97092 13.0093 6.58852 12.9378 6.32488 12.8655C5.79682 12.7415 5.65431 12.7161 5.36771 12.7161L5.08032 12.6922L5.12861 12.7399C5.24816 12.9545 5.9892 13.3177 7.08888 13.7493C7.54253 13.9177 8.16402 14.1816 8.28357 14.2261L8.35561 14.25H8.23607C8.13997 14.2521 8.04391 14.2441 7.94947 14.2261ZM15.9805 14.25C16.0051 14.25 16.602 14.0115 17.176 13.7731C18.2757 13.3408 18.997 13.0046 19.16 12.7892L19.2321 12.7169H19.0405C18.803 12.693 18.5655 12.7407 18.0604 12.8607C17.8229 12.9092 17.6059 12.9569 17.5347 12.9807C17.4864 12.9807 17.4151 12.9807 17.3914 13.0046C17.3668 13.0046 17.3668 13.0046 17.3668 12.9807C17.3668 12.9807 17.5584 12.8369 17.7738 12.6692C18.2037 12.3568 18.347 12.1923 18.9209 11.5653C19.2602 11.224 19.5795 10.8634 19.8773 10.4852C20.1402 10.1737 20.4505 9.74131 20.4268 9.74131C20.403 9.71746 20.1893 9.78979 19.9518 9.93364C19.8085 10.0052 19.6414 10.0775 19.5456 10.1252C19.4023 10.1737 19.0437 10.2213 18.9962 10.1975C18.9716 10.1975 19.0437 10.1013 19.1632 9.98132C19.4261 9.66978 19.6177 9.3336 19.8805 8.70972C19.9755 8.44586 20.0951 8.13352 20.1433 7.98967C20.2391 7.72581 20.3104 7.46195 20.2866 7.43811C20.2629 7.41427 20.2146 7.50964 19.9755 8.01351C19.6414 8.66203 19.5219 8.85357 19.4023 8.99742L19.2828 9.09358L19.259 8.32585C19.259 7.46195 19.2353 7.24578 19.1395 6.7419C19.0674 6.4542 18.9962 6.21419 18.8521 5.73415C18.6668 5.21809 18.4349 4.72009 18.1593 4.24637C17.8965 3.83866 17.6336 3.47864 17.6051 3.52633C17.6368 3.6334 17.6768 3.73783 17.7247 3.83866C17.9432 4.29915 18.1114 4.78199 18.2266 5.27876C18.3462 5.78263 18.3707 6.02265 18.3707 6.76654C18.38 7.07883 18.3718 7.39139 18.3462 7.70276C18.22 8.62603 17.953 9.5243 17.5545 10.366C17.1375 11.1423 16.6663 11.8881 16.1444 12.5977C15.9766 12.79 15.7858 13.0054 15.7858 12.9815C15.7858 12.9577 15.8816 12.79 16.1682 12.2138C16.7176 11.2537 16.933 10.7499 17.1974 9.86211C17.4176 9.13594 17.5547 8.38696 17.6059 7.62964C17.6832 6.46456 17.4869 5.29753 17.0327 4.22253C16.5308 2.97477 15.7415 1.8947 14.5943 0.884562C14.1398 0.476853 14.1192 0.45301 13.8295 0.26068C13.4708 0.0222531 13.4471 -0.00317902 13.6141 0.0222531C14.1881 0.142261 15.3828 0.718458 16.1001 1.19849C16.4825 1.46235 16.7216 1.65388 17.2481 2.15776C17.7231 2.61395 17.8696 2.7578 18.0604 3.02166C18.4799 3.61666 18.8402 4.25153 19.1363 4.91715C19.4704 5.73336 19.7578 6.66561 19.7578 7.02881C19.7578 7.31731 19.9486 6.86112 20.0681 6.26108C20.1877 5.61335 20.2114 5.46632 20.2114 4.70177C20.236 3.7417 20.1877 3.43016 19.9739 2.51778C19.9583 2.3963 19.9344 2.27602 19.9027 2.15776C19.9264 2.15776 20.0222 2.30161 20.118 2.51778C20.5221 3.3321 20.7896 4.20776 20.9097 5.10948C20.9335 5.44566 20.9335 6.42956 20.886 6.74111C20.8289 7.25737 20.7085 7.76457 20.5273 8.25114C20.4315 8.56348 20.3603 8.77886 20.384 8.77886C20.4798 8.77886 21.1757 7.6511 21.3879 7.14723C21.4354 7.05186 21.555 6.71568 21.6745 6.3795C21.7941 6.06795 21.912 5.75561 21.9374 5.70793C21.9856 5.6356 21.9856 5.61176 22.0094 5.65945C22.0094 5.70793 22.0332 5.94794 22.0569 6.21578C22.1052 6.79197 22.1052 7.05583 22.0332 7.48738C21.8661 8.44745 21.3879 9.64673 20.886 10.4153C20.6017 10.8267 20.2816 11.2121 19.9296 11.5669C19.7142 11.8053 19.4997 12.0223 19.4751 12.0437L19.4514 12.1152L19.4997 12.0914C19.6667 12.0437 20.3603 11.6837 20.7664 11.3952C21.0293 11.2037 21.4837 10.8198 21.8178 10.5321C21.9611 10.3874 22.0807 10.2674 22.1052 10.2937C21.999 10.5308 21.8693 10.7566 21.7181 10.9676C21.4767 11.3628 21.1963 11.7326 20.8812 12.0715C20.63 12.3406 20.3505 12.5815 20.0476 12.79C18.9962 13.6054 17.4658 14.1816 16.1753 14.2531L15.9805 14.25Z" fill="#4A5B68"/>
<path d="M25.25 13.0491H26.877V8.64536H31.381V7.26726H26.877V3.93485H31.795V2.52734H25.25V13.0491Z" fill="#4A5B68"/>
<path d="M39.8644 11.6344H34.8379V8.36799H39.5961V7.01214H34.8379V3.93485H39.8644V2.52734H33.2109V13.0491H39.8644V11.6344Z" fill="#4A5B68"/>
<path d="M43.1147 5.29865H43.1804L48.6138 13.0491H50.0809V2.52734H48.4975V10.2857H48.4389L43.0062 2.52734H41.5312V13.0491H43.1147V5.29865Z" fill="#4A5B68"/>
<path d="M53.6406 2.52734H52.0137V13.0491H53.6406V2.52734Z" fill="#4A5B68"/>
<path d="M54.9277 13.0491H56.7289L59.3732 9.03877H59.4238L62.0309 13.0491H63.9342L60.4475 7.82836V7.78464L63.9999 2.52734H62.1624L59.5474 6.59649H59.4888L56.903 2.52734H54.9634L58.4065 7.72663V7.77749L54.9277 13.0491Z" fill="#4A5B68"/>
<path d="M25.8143 15.5352H25.2656V21.3806H25.8143V15.5352Z" fill="#4A5B68"/>
<path d="M31.1433 20.4165H31.1156L27.7009 15.5352H27.1562V21.3806H27.7009V16.4952H27.7294L31.156 21.3806H31.688V15.5352H31.1433V20.4165Z" fill="#4A5B68"/>
<path d="M34.9363 15.5352H33.0195V21.3798H34.9363C35.8103 21.3798 36.4888 21.1239 36.9717 20.612C37.4547 20.1002 37.6961 19.3812 37.6961 18.4551C37.6961 17.5316 37.4541 16.8139 36.9701 16.3021C36.4861 15.7903 35.8082 15.5346 34.9363 15.5352ZM36.5561 20.2504C36.1703 20.6695 35.6195 20.8788 34.9038 20.8783H33.5721V16.0374H34.9038C35.6195 16.0374 36.1703 16.2467 36.5561 16.6653C36.9419 17.0839 37.1351 17.6821 37.1356 18.4598C37.1356 19.2355 36.9424 19.8324 36.5561 20.2504Z" fill="#4A5B68"/>
<path d="M42.7514 19.3071C42.7514 19.804 42.5994 20.2035 42.2954 20.5055C41.9914 20.8076 41.5758 20.9588 41.0485 20.9593C40.5207 20.9593 40.105 20.8081 39.8016 20.5055C39.4981 20.203 39.3461 19.8035 39.3455 19.3071V15.5352H38.7969V19.3388C38.7969 19.9746 38.9993 20.4899 39.4041 20.8846C39.8089 21.2794 40.3571 21.4757 41.0485 21.4736C41.7399 21.4736 42.2888 21.2772 42.6952 20.8846C43.1016 20.492 43.3046 19.9768 43.3041 19.3388V15.5352H42.7499L42.7514 19.3071Z" fill="#4A5B68"/>
<path d="M46.9373 18.2155L46.3079 18.0565C45.8772 17.9452 45.5663 17.8107 45.3752 17.6528C45.2833 17.5798 45.2096 17.4864 45.1599 17.3799C45.1101 17.2734 45.0857 17.1568 45.0886 17.0392C45.0862 16.8856 45.1209 16.7336 45.1899 16.5964C45.2588 16.4592 45.3599 16.3409 45.4845 16.2516C45.7484 16.0471 46.0838 15.9451 46.4908 15.9456C46.8977 15.9462 47.2381 16.0468 47.5121 16.2476C47.6392 16.3394 47.7445 16.4582 47.8205 16.5956C47.8964 16.733 47.9412 16.8856 47.9514 17.0424H48.5056C48.5005 16.8192 48.4451 16.6 48.3436 16.4012C48.2422 16.2025 48.0973 16.0294 47.9198 15.8948C47.5445 15.5938 47.0745 15.4434 46.5098 15.4434C45.9334 15.4434 45.4584 15.5952 45.0847 15.8988C44.9061 16.034 44.7619 16.2096 44.6638 16.4114C44.5657 16.6132 44.5165 16.8354 44.5202 17.0599C44.5137 17.2333 44.5436 17.4062 44.6078 17.5673C44.672 17.7284 44.7692 17.8742 44.8931 17.9953C45.1417 18.2359 45.5375 18.425 46.0807 18.5628L46.8035 18.7487C47.2368 18.86 47.5514 19.0012 47.7472 19.1723C47.8429 19.2541 47.919 19.3564 47.97 19.4717C48.0209 19.587 48.0455 19.7123 48.0417 19.8383C48.043 19.9983 48.0053 20.1562 47.9319 20.2982C47.8585 20.4402 47.7516 20.562 47.6205 20.653C47.3392 20.8649 46.9806 20.9709 46.5446 20.9709C46.0902 20.9709 45.7122 20.8623 45.4109 20.645C45.267 20.5507 45.1467 20.4244 45.0591 20.276C44.9716 20.1276 44.9191 19.961 44.9058 19.7891H44.3516C44.3606 20.0265 44.4221 20.2589 44.5316 20.4695C44.6412 20.6801 44.796 20.8636 44.9849 21.0066C45.3776 21.3155 45.879 21.47 46.4892 21.47C47.132 21.47 47.6445 21.3155 48.0267 21.0066C48.2121 20.8607 48.3606 20.673 48.4602 20.4587C48.5597 20.2444 48.6076 20.0095 48.5999 19.7732C48.5999 19.3679 48.4692 19.0436 48.208 18.8004C47.9467 18.5572 47.5231 18.3622 46.9373 18.2155Z" fill="#4A5B68"/>
<path d="M49.2266 16.0374H51.1757V21.3806H51.7284V16.0374H53.6775V15.5352H49.2266V16.0374Z" fill="#4A5B68"/>
<path d="M58.2388 18.306C58.463 17.9995 58.5795 17.6268 58.5697 17.2466C58.5697 16.7253 58.4011 16.3101 58.0638 16.0012C57.7265 15.6924 57.2737 15.5376 56.7052 15.5371H54.623V21.3794H55.1725V18.9864H56.7504L58.0899 21.3794H58.7312L57.3228 18.8965C57.6875 18.8132 58.0116 18.6043 58.2388 18.306ZM56.6609 18.496H55.1725V16.0322H56.6411C57.0665 16.0322 57.3993 16.1409 57.6395 16.3581C57.8796 16.5753 58.0002 16.8771 58.0013 17.2633C58.0013 17.6554 57.8836 17.9593 57.6482 18.1749C57.4128 18.3905 57.0837 18.4976 56.6609 18.496Z" fill="#4A5B68"/>
<path d="M63.36 15.5352L61.6364 18.3104H61.6166L59.8931 15.5352H59.2637L61.3498 18.8533V21.3806H61.9032V18.8533L63.9894 15.5352H63.36Z" fill="#4A5B68"/>
</g>
<defs>
<clipPath id="clip0_138_1007">
<rect width="64" height="24" fill="white"/>
</clipPath>
</defs>
</svg>
