<svg width="350" height="122" viewBox="0 0 350 122" fill="none" xmlns="http://www.w3.org/2000/svg">
<path d="M18.7781 111.012C19.3248 83.8651 79.9307 88.6256 48.6965 17.8145C23.8357 31.6354 4.66462 95.2461 18.7781 111.012Z" fill="url(#paint0_linear_138_982)"/>
<path d="M7.15906 57.6902C13.2589 60.6762 33.8482 42.0094 20.2986 19.1621C3.45129 30.8332 1.99894 46.6676 7.15906 57.6902Z" fill="url(#paint1_linear_138_982)"/>
<path d="M37.1292 121.335C37.5051 104.187 79.5037 112.411 73.3696 65.9316C57.1375 86.6972 21.7 91.3042 37.1292 121.335Z" fill="url(#paint2_linear_138_982)"/>
<path d="M53.9252 37.3C53.9252 20.8684 43.4341 6.74032 30.38 1.43375C28.9618 0.870671 27.5094 0.358783 26.04 -0.0166016C26.04 -0.0166016 29.2181 9.89697 29.2181 17.9677C29.2181 50.1996 3.3833 52.8785 3.3833 83.8477C3.3833 95.7747 9.53444 106.78 18.5219 110.944C18.6074 110.995 18.727 110.995 18.8295 111.012C18.1802 108.811 17.9239 107.105 17.9239 104.733C17.9239 82.3803 53.9081 75.4357 53.9081 37.3342L53.9252 37.3Z" fill="url(#paint3_linear_138_982)"/>
<path d="M66.2955 47.9811C65.1507 46.5649 63.8863 45.251 62.4852 44.0566C57.4447 81.032 26.9453 86.1338 26.9453 106.063C26.9453 112.377 31.422 119.134 37.2826 121.335C37.1118 120.857 37.0093 120.396 36.9409 119.884C36.8726 119.407 36.8384 118.861 36.8384 118.195C36.8384 105.739 73.7282 101.798 73.7282 69.2245C73.7282 61.8874 71.2335 54.0896 66.2955 47.9982V47.9811Z" fill="url(#paint4_linear_138_982)"/>
<path d="M14.0622 12.5586C12.4731 11.7226 10.7474 11.1765 8.9875 11.04C8.9875 11.04 10.7816 14.2137 10.7816 17.7799C10.7816 29.2121 -0.0170898 33.5631 -0.0170898 45.2C-0.0170898 50.6772 2.95596 55.1819 7.17633 57.7754C7.26176 57.0588 7.36428 56.3763 7.48389 55.7449C7.53515 55.5231 7.56932 55.2842 7.62058 55.0795C10.1665 47.0087 22.0074 38.0677 22.0074 25.4241C22.0074 19.8104 18.5559 14.9475 14.028 12.5586H14.0622Z" fill="url(#paint5_linear_138_982)"/>
<path d="M17.4624 98.5732C18.4705 92.0893 24.1603 84.1892 30.0552 78.2683C37.7953 70.5047 50.371 57.7928 53.3953 41.583C52.3872 59.0896 38.6326 74.0879 28.4661 83.6943C24.2116 87.7212 20.1962 93.5397 17.4624 98.5732Z" fill="#ED1C24"/>
<path d="M36.6505 120.055C33.4724 115.005 39.9653 108.845 46.031 104.92C51.3791 101.457 64.5015 95.2627 70.2084 82.585C64.2281 97.5833 50.0805 103.197 43.5876 107.958C40.888 109.92 34.9248 115.022 36.6676 120.055H36.6505Z" fill="url(#paint6_linear_138_982)"/>
<path d="M7.14212 56.3418C6.98834 49.4996 14.0622 41.0705 16.8131 37.3166C20.2816 32.5731 21.1531 29.6724 21.5119 28.1709C20.7088 33.5628 17.189 38.5452 13.7888 43.5958C12.2168 45.9505 7.94518 50.6598 7.1592 56.3418H7.14212Z" fill="url(#paint7_linear_138_982)"/>
<path d="M91.8231 104.681C96.4364 108.845 100.828 111.302 107.167 111.302C110.669 111.302 117.077 109.817 117.077 105.193C117.077 102.531 115.061 101.183 111.131 100.518L100.11 98.7264C90.2853 97.1566 84.9201 91.9694 84.9201 84.1546C84.9201 71.3574 95.2745 66.085 106.586 66.085C115.385 66.085 124.014 69.6511 129.977 76.2715L119.913 83.4892C116.428 79.2576 111.268 76.8005 105.697 76.8005C102.639 76.8005 98.1792 78.7286 98.1792 82.1583C98.1792 84.9907 100.486 86.3899 105.544 87.2259L110.601 88.045C121.178 89.7513 129.892 93.0273 129.892 103.146C129.892 119.048 115.522 122.034 105.612 122.034C96.6073 122.034 88.1495 119.134 80.9219 111.251L91.8402 104.698L91.8231 104.681Z" fill="white"/>
<path d="M162.493 122C145.594 122 135.684 108.913 135.684 94.0341C135.684 79.1552 145.594 66.085 162.493 66.085C179.391 66.085 189.319 79.1722 189.319 94.0341C189.319 108.896 179.408 122 162.493 122ZM162.493 77.2441C154.753 77.2441 148.926 82.1582 148.926 94.0511C148.926 101.798 152.053 110.875 162.493 110.875C172.318 110.875 176.059 102.241 176.059 94.0511C176.059 85.8609 172.335 77.2441 162.493 77.2441Z" fill="white"/>
<path d="M232.65 85.1955C230.788 80.2813 226.243 77.2271 221.629 77.2271C214.333 77.2271 208.524 82.1412 208.524 94.0341C208.524 101.781 211.651 110.858 222.073 110.858C225.644 110.858 230.873 108.179 232.94 103.419L243.449 108.469C238.904 116.728 231.01 122 222.073 122C205.175 122 195.265 108.913 195.265 94.0341C195.265 79.1552 204.508 66.085 221.031 66.085C231.454 66.085 238.306 71.1356 243.226 79.923L232.65 85.1955Z" fill="white"/>
<path d="M264.089 67.5693H277.793L297.818 120.516H283.602L280.92 112.189H261.321L258.639 120.516H244.491L264.072 67.5693H264.089ZM277.707 102.378L271.163 80.5201H271.009L264.465 102.378H277.707Z" fill="white"/>
<path d="M303.081 67.5693H329.599C341.525 67.5693 348.821 73.0807 348.821 84.9735C348.821 91.8158 344.498 97.31 337.869 99.2552L350.017 120.533H335.203L324.78 101.49H316.374V120.533H303.115V67.5864L303.081 67.5693ZM316.34 91.6622H328.471C332.726 91.594 335.545 89.444 335.545 84.5299C335.545 79.6158 332.726 77.4658 328.471 77.3805H316.34V91.6451V91.6622Z" fill="white"/>
<defs>
<linearGradient id="paint0_linear_138_982" x1="13.9768" y1="64.4133" x2="57.6328" y2="64.4133" gradientUnits="userSpaceOnUse">
<stop stop-color="#CC171E"/>
<stop offset="0.54" stop-color="#640000"/>
<stop offset="0.67" stop-color="#660000"/>
<stop offset="0.75" stop-color="#6E0202"/>
<stop offset="0.81" stop-color="#7C0506"/>
<stop offset="0.87" stop-color="#90090B"/>
<stop offset="0.91" stop-color="#A90E12"/>
<stop offset="0.96" stop-color="#C8141A"/>
<stop offset="1" stop-color="#ED1C24"/>
</linearGradient>
<linearGradient id="paint1_linear_138_982" x1="4.52774" y1="38.5797" x2="24.8265" y2="38.5797" gradientUnits="userSpaceOnUse">
<stop stop-color="#2376BC"/>
<stop offset="0.05" stop-color="#216FB4"/>
<stop offset="0.13" stop-color="#1C5BA0"/>
<stop offset="0.23" stop-color="#143C80"/>
<stop offset="0.34" stop-color="#091053"/>
<stop offset="0.37" stop-color="#050042"/>
<stop offset="0.46" stop-color="#060749"/>
<stop offset="0.6" stop-color="#0C1B5E"/>
<stop offset="0.77" stop-color="#143D81"/>
<stop offset="0.96" stop-color="#206BB1"/>
<stop offset="1" stop-color="#2376BC"/>
</linearGradient>
<linearGradient id="paint2_linear_138_982" x1="33.336" y1="93.6248" x2="73.9848" y2="93.6248" gradientUnits="userSpaceOnUse">
<stop stop-color="#008742"/>
<stop offset="0.21" stop-color="#00602B"/>
<stop offset="0.22" stop-color="#00612C"/>
<stop offset="0.32" stop-color="#007638"/>
<stop offset="0.42" stop-color="#00823F"/>
<stop offset="0.52" stop-color="#008742"/>
<stop offset="0.75" stop-color="#004F1F"/>
<stop offset="1" stop-color="#008742"/>
</linearGradient>
<linearGradient id="paint3_linear_138_982" x1="-9.05568" y1="84.6497" x2="55.5001" y2="24.7211" gradientUnits="userSpaceOnUse">
<stop stop-color="#ED1C24"/>
<stop offset="0.69" stop-color="#D32329"/>
<stop offset="0.75" stop-color="#CE2127"/>
<stop offset="0.82" stop-color="#C11E23"/>
<stop offset="0.89" stop-color="#AB181B"/>
<stop offset="0.96" stop-color="#8C0F11"/>
<stop offset="1" stop-color="#7A0B0C"/>
</linearGradient>
<linearGradient id="paint4_linear_138_982" x1="-1.58915" y1="96.1498" x2="74.9106" y2="76.0832" gradientUnits="userSpaceOnUse">
<stop stop-color="#50B848"/>
<stop offset="0.03" stop-color="#53B847"/>
<stop offset="0.18" stop-color="#64BC45"/>
<stop offset="0.34" stop-color="#6EBE44"/>
<stop offset="0.54" stop-color="#72BF44"/>
<stop offset="0.61" stop-color="#69B640"/>
<stop offset="0.72" stop-color="#529D37"/>
<stop offset="0.86" stop-color="#2C7628"/>
<stop offset="1" stop-color="#004817"/>
</linearGradient>
<linearGradient id="paint5_linear_138_982" x1="0.837235" y1="53.6633" x2="20.4925" y2="9.14305" gradientUnits="userSpaceOnUse">
<stop offset="0.11" stop-color="#00A2DD"/>
<stop offset="0.52" stop-color="#0076C0"/>
<stop offset="0.67" stop-color="#0079C2"/>
<stop offset="0.81" stop-color="#0084C9"/>
<stop offset="0.94" stop-color="#0097D6"/>
<stop offset="1" stop-color="#00A2DD"/>
</linearGradient>
<linearGradient id="paint6_linear_138_982" x1="35.8133" y1="101.303" x2="70.1913" y2="101.303" gradientUnits="userSpaceOnUse">
<stop stop-color="#50B848"/>
<stop offset="0.03" stop-color="#53B847"/>
<stop offset="0.18" stop-color="#64BC45"/>
<stop offset="0.34" stop-color="#6EBE44"/>
<stop offset="0.54" stop-color="#72BF44"/>
<stop offset="0.61" stop-color="#69B640"/>
<stop offset="0.72" stop-color="#529D37"/>
<stop offset="0.86" stop-color="#2C7628"/>
<stop offset="1" stop-color="#004817"/>
</linearGradient>
<linearGradient id="paint7_linear_138_982" x1="7.14212" y1="42.2649" x2="21.4948" y2="42.2649" gradientUnits="userSpaceOnUse">
<stop offset="0.11" stop-color="#00A2DD"/>
<stop offset="0.52" stop-color="#0076C0"/>
<stop offset="0.67" stop-color="#0079C2"/>
<stop offset="0.81" stop-color="#0084C9"/>
<stop offset="0.94" stop-color="#0097D6"/>
<stop offset="1" stop-color="#00A2DD"/>
</linearGradient>
</defs>
</svg>
