<svg width="24" height="24" viewBox="0 0 24 24" fill="none" xmlns="http://www.w3.org/2000/svg">
<path d="M8.26603 21.8556C8.37027 16.6454 19.9255 17.5591 13.9703 3.96875C9.23032 6.62132 5.57513 18.8297 8.26603 21.8556Z" fill="url(#paint0_linear_138_848)"/>
<path d="M6.05116 11.622C7.21417 12.1951 11.1398 8.61246 8.55636 4.22754C5.34422 6.46748 5.06732 9.50648 6.05116 11.622Z" fill="url(#paint1_linear_138_848)"/>
<path d="M11.7652 23.8373C11.8369 20.5461 19.8444 22.1246 18.6749 13.2041C15.58 17.1895 8.82347 18.0737 11.7652 23.8373Z" fill="url(#paint2_linear_138_848)"/>
<path d="M14.9675 7.70881C14.9675 4.5552 12.9672 1.84369 10.4783 0.825231C10.2079 0.717163 9.93099 0.61892 9.65083 0.546875C9.65083 0.546875 10.2568 2.44952 10.2568 3.99849C10.2568 10.1845 5.33105 10.6987 5.33105 16.6424C5.33105 18.9315 6.50384 21.0437 8.21742 21.8427C8.23371 21.8526 8.25651 21.8526 8.27606 21.8558C8.15226 21.4334 8.1034 21.1059 8.1034 20.6507C8.1034 16.3608 14.9642 15.0279 14.9642 7.71535L14.9675 7.70881Z" fill="url(#paint3_linear_138_848)"/>
<path d="M17.3258 9.75906C17.1076 9.48725 16.8665 9.23509 16.5994 9.00586C15.6383 16.1023 9.82324 17.0815 9.82324 20.9064C9.82324 22.1181 10.6768 23.4149 11.7942 23.8373C11.7616 23.7456 11.7421 23.6572 11.729 23.559C11.716 23.4673 11.7095 23.3625 11.7095 23.2348C11.7095 20.8442 18.743 20.0877 18.743 13.8362C18.743 12.428 18.2673 10.9314 17.3258 9.76233V9.75906Z" fill="url(#paint4_linear_138_848)"/>
<path d="M7.367 2.9604C7.06403 2.79994 6.735 2.69514 6.39945 2.66895C6.39945 2.66895 6.74151 3.27805 6.74151 3.96248C6.74151 6.15658 4.68262 6.99165 4.68262 9.22504C4.68262 10.2762 5.24947 11.1408 6.05413 11.6386C6.07042 11.501 6.08996 11.37 6.11277 11.2489C6.12254 11.2063 6.12906 11.1604 6.13883 11.1211C6.62423 9.57217 8.88185 7.85619 8.88185 5.42958C8.88185 4.35218 8.22379 3.41887 7.36049 2.9604H7.367Z" fill="url(#paint5_linear_138_848)"/>
<path d="M8.01514 19.469C8.20734 18.2246 9.29217 16.7084 10.4161 15.572C11.8919 14.082 14.2896 11.6423 14.8662 8.53125C14.674 11.8912 12.0515 14.7697 10.1131 16.6134C9.30195 17.3862 8.53638 18.5029 8.01514 19.469Z" fill="#ED1C24"/>
<path d="M11.6739 23.5918C11.0679 22.6225 12.3059 21.4403 13.4624 20.6871C14.482 20.0223 16.984 18.8335 18.0721 16.4004C16.9319 19.2789 14.2345 20.3563 12.9965 21.27C12.4818 21.6466 11.3448 22.6257 11.6771 23.5918H11.6739Z" fill="url(#paint6_linear_138_848)"/>
<path d="M6.04783 11.3637C6.01851 10.0505 7.36722 8.43276 7.89172 7.71231C8.55304 6.80192 8.71919 6.24521 8.7876 5.95703C8.63449 6.99186 7.96339 7.94809 7.3151 8.91743C7.01538 9.36935 6.20095 10.2732 6.05109 11.3637H6.04783Z" fill="url(#paint7_linear_138_848)"/>
<defs>
<linearGradient id="paint0_linear_138_848" x1="7.3506" y1="12.9122" x2="15.6741" y2="12.9122" gradientUnits="userSpaceOnUse">
<stop stop-color="#CC171E"/>
<stop offset="0.54" stop-color="#640000"/>
<stop offset="0.67" stop-color="#660000"/>
<stop offset="0.75" stop-color="#6E0202"/>
<stop offset="0.81" stop-color="#7C0506"/>
<stop offset="0.87" stop-color="#90090B"/>
<stop offset="0.91" stop-color="#A90E12"/>
<stop offset="0.96" stop-color="#C8141A"/>
<stop offset="1" stop-color="#ED1C24"/>
</linearGradient>
<linearGradient id="paint1_linear_138_848" x1="5.54946" y1="7.95423" x2="9.41967" y2="7.95423" gradientUnits="userSpaceOnUse">
<stop stop-color="#2376BC"/>
<stop offset="0.05" stop-color="#216FB4"/>
<stop offset="0.13" stop-color="#1C5BA0"/>
<stop offset="0.23" stop-color="#143C80"/>
<stop offset="0.34" stop-color="#091053"/>
<stop offset="0.37" stop-color="#050042"/>
<stop offset="0.46" stop-color="#060749"/>
<stop offset="0.6" stop-color="#0C1B5E"/>
<stop offset="0.77" stop-color="#143D81"/>
<stop offset="0.96" stop-color="#206BB1"/>
<stop offset="1" stop-color="#2376BC"/>
</linearGradient>
<linearGradient id="paint2_linear_138_848" x1="11.042" y1="18.5191" x2="18.7922" y2="18.5191" gradientUnits="userSpaceOnUse">
<stop stop-color="#008742"/>
<stop offset="0.21" stop-color="#00602B"/>
<stop offset="0.22" stop-color="#00612C"/>
<stop offset="0.32" stop-color="#007638"/>
<stop offset="0.42" stop-color="#00823F"/>
<stop offset="0.52" stop-color="#008742"/>
<stop offset="0.75" stop-color="#004F1F"/>
<stop offset="1" stop-color="#008742"/>
</linearGradient>
<linearGradient id="paint3_linear_138_848" x1="2.95941" y1="16.7963" x2="15.3428" y2="5.37604" gradientUnits="userSpaceOnUse">
<stop stop-color="#ED1C24"/>
<stop offset="0.69" stop-color="#D32329"/>
<stop offset="0.75" stop-color="#CE2127"/>
<stop offset="0.82" stop-color="#C11E23"/>
<stop offset="0.89" stop-color="#AB181B"/>
<stop offset="0.96" stop-color="#8C0F11"/>
<stop offset="1" stop-color="#7A0B0C"/>
</linearGradient>
<linearGradient id="paint4_linear_138_848" x1="4.3828" y1="19.0037" x2="18.9807" y2="15.1997" gradientUnits="userSpaceOnUse">
<stop stop-color="#50B848"/>
<stop offset="0.03" stop-color="#53B847"/>
<stop offset="0.18" stop-color="#64BC45"/>
<stop offset="0.34" stop-color="#6EBE44"/>
<stop offset="0.54" stop-color="#72BF44"/>
<stop offset="0.61" stop-color="#69B640"/>
<stop offset="0.72" stop-color="#529D37"/>
<stop offset="0.86" stop-color="#2C7628"/>
<stop offset="1" stop-color="#004817"/>
</linearGradient>
<linearGradient id="paint5_linear_138_848" x1="4.8455" y1="10.8493" x2="8.63456" y2="2.32333" gradientUnits="userSpaceOnUse">
<stop offset="0.11" stop-color="#00A2DD"/>
<stop offset="0.52" stop-color="#0076C0"/>
<stop offset="0.67" stop-color="#0079C2"/>
<stop offset="0.81" stop-color="#0084C9"/>
<stop offset="0.94" stop-color="#0097D6"/>
<stop offset="1" stop-color="#00A2DD"/>
</linearGradient>
<linearGradient id="paint6_linear_138_848" x1="11.5142" y1="19.9928" x2="18.0688" y2="19.9928" gradientUnits="userSpaceOnUse">
<stop stop-color="#50B848"/>
<stop offset="0.03" stop-color="#53B847"/>
<stop offset="0.18" stop-color="#64BC45"/>
<stop offset="0.34" stop-color="#6EBE44"/>
<stop offset="0.54" stop-color="#72BF44"/>
<stop offset="0.61" stop-color="#69B640"/>
<stop offset="0.72" stop-color="#529D37"/>
<stop offset="0.86" stop-color="#2C7628"/>
<stop offset="1" stop-color="#004817"/>
</linearGradient>
<linearGradient id="paint7_linear_138_848" x1="6.04783" y1="8.66199" x2="8.78434" y2="8.66199" gradientUnits="userSpaceOnUse">
<stop offset="0.11" stop-color="#00A2DD"/>
<stop offset="0.52" stop-color="#0076C0"/>
<stop offset="0.67" stop-color="#0079C2"/>
<stop offset="0.81" stop-color="#0084C9"/>
<stop offset="0.94" stop-color="#0097D6"/>
<stop offset="1" stop-color="#00A2DD"/>
</linearGradient>
</defs>
</svg>
