<svg width="91" height="32" viewBox="0 0 91 32" fill="none" xmlns="http://www.w3.org/2000/svg">
<path d="M4.8821 29.1177C5.02426 21.9971 20.7818 23.2458 12.6609 4.67236C6.19708 8.29754 1.2126 24.9823 4.8821 29.1177Z" fill="url(#paint0_linear_138_554)"/>
<path d="M1.86128 15.1316C3.44725 15.9148 8.80045 11.0186 5.27755 5.02588C0.897258 8.08714 0.519646 12.2404 1.86128 15.1316Z" fill="url(#paint1_linear_138_554)"/>
<path d="M9.65345 31.8255C9.75119 27.3276 20.6708 29.4848 19.076 17.2935C14.8556 22.7402 5.64188 23.9486 9.65345 31.8255Z" fill="url(#paint2_linear_138_554)"/>
<path d="M14.0208 9.78358C14.0208 5.47365 11.2931 1.76791 7.89902 0.376025C7.53029 0.228333 7.15268 0.094067 6.77063 -0.00439453C6.77063 -0.00439453 7.59693 2.59589 7.59693 4.71281C7.59693 13.1671 0.879883 13.8697 0.879883 21.9928C0.879883 25.1212 2.47918 28.0079 4.81593 29.0999C4.83814 29.1134 4.86924 29.1134 4.8959 29.1178C4.72708 28.5405 4.66044 28.0929 4.66044 27.4708C4.66044 21.6079 14.0163 19.7864 14.0163 9.79253L14.0208 9.78358Z" fill="url(#paint3_linear_138_554)"/>
<path d="M17.2369 12.585C16.9393 12.2136 16.6105 11.869 16.2462 11.5557C14.9357 21.2541 7.00586 22.5923 7.00586 27.8197C7.00586 29.4757 8.16979 31.248 9.69357 31.8253C9.64914 31.7 9.62249 31.5792 9.60472 31.4449C9.58695 31.3196 9.57806 31.1764 9.57806 31.0018C9.57806 27.7347 19.1694 26.7008 19.1694 18.1571C19.1694 16.2326 18.5208 14.1873 17.2369 12.5895V12.585Z" fill="url(#paint4_linear_138_554)"/>
<path d="M3.65622 3.29383C3.24307 3.07453 2.79438 2.93131 2.3368 2.89551C2.3368 2.89551 2.80326 3.72796 2.80326 4.66334C2.80326 7.66194 -0.00439453 8.8032 -0.00439453 11.8555C-0.00439453 13.2922 0.768599 14.4737 1.86589 15.154C1.88811 14.966 1.91476 14.787 1.94586 14.6214C1.95919 14.5632 1.96807 14.5005 1.9814 14.4468C2.64333 12.3299 5.72198 9.98474 5.72198 6.66838C5.72198 5.19593 4.82459 3.9204 3.64733 3.29383H3.65622Z" fill="url(#paint5_linear_138_554)"/>
<path d="M4.54004 25.855C4.80215 24.1543 6.2815 22.0821 7.81416 20.5291C9.82661 18.4928 13.0963 15.1585 13.8826 10.9067C13.6205 15.4986 10.0443 19.4326 7.401 21.9523C6.29482 23.0086 5.25084 24.5347 4.54004 25.855Z" fill="#ED1C24"/>
<path d="M9.52914 31.4899C8.70283 30.1651 10.391 28.5495 11.9681 27.5201C13.3586 26.6116 16.7704 24.9869 18.2542 21.6616C16.6993 25.5956 13.0209 27.0681 11.3328 28.3167C10.6309 28.8314 9.08044 30.1696 9.53358 31.4899H9.52914Z" fill="url(#paint6_linear_138_554)"/>
<path d="M1.85709 14.7783C1.8171 12.9836 3.6563 10.7727 4.37154 9.78804C5.27336 8.54385 5.49993 7.78301 5.59322 7.38916C5.38443 8.80343 4.46927 10.1103 3.58522 11.435C3.17651 12.0527 2.06588 13.2879 1.86153 14.7783H1.85709Z" fill="url(#paint7_linear_138_554)"/>
<path d="M23.8739 27.4576C25.0733 28.5496 26.2151 29.1941 27.8632 29.1941C28.7739 29.1941 30.4399 28.8048 30.4399 27.5919C30.4399 26.8937 29.9157 26.5401 28.8939 26.3656L26.0285 25.8957C23.474 25.4839 22.0791 24.1234 22.0791 22.0736C22.0791 18.7169 24.7712 17.334 27.7122 17.334C30.0001 17.334 32.2435 18.2694 33.7939 20.0059L31.1773 21.899C30.271 20.7891 28.9294 20.1446 27.4812 20.1446C26.686 20.1446 25.5265 20.6503 25.5265 21.5499C25.5265 22.2929 26.1262 22.6599 27.4412 22.8792L28.7562 23.094C31.5061 23.5415 33.7717 24.4008 33.7717 27.0548C33.7717 31.226 30.0356 32.0092 27.459 32.0092C25.1178 32.0092 22.9187 31.2484 21.0396 29.1807L23.8783 27.4621L23.8739 27.4576Z" fill="white"/>
<path d="M42.2481 32.0003C37.8545 32.0003 35.2778 28.5676 35.2778 24.6649C35.2778 20.7622 37.8545 17.334 42.2481 17.334C46.6417 17.334 49.2228 20.7667 49.2228 24.6649C49.2228 28.5631 46.6462 32.0003 42.2481 32.0003ZM42.2481 20.261C40.2357 20.261 38.7208 21.5499 38.7208 24.6694C38.7208 26.7013 39.5337 29.0822 42.2481 29.0822C44.8025 29.0822 45.7754 26.8176 45.7754 24.6694C45.7754 22.5211 44.807 20.261 42.2481 20.261Z" fill="white"/>
<path d="M60.4887 22.3466C60.0045 21.0576 58.8228 20.2565 57.6233 20.2565C55.7264 20.2565 54.2159 21.5455 54.2159 24.6649C54.2159 26.6968 55.0289 29.0778 57.7388 29.0778C58.6673 29.0778 60.0267 28.3751 60.5643 27.1264L63.2964 28.4512C62.1147 30.6173 60.0622 32.0003 57.7388 32.0003C53.3452 32.0003 50.7686 28.5676 50.7686 24.6649C50.7686 20.7622 53.1719 17.334 57.4678 17.334C60.1778 17.334 61.9592 18.6587 63.2386 20.9636L60.4887 22.3466Z" fill="white"/>
<path d="M68.6629 17.7231H72.2258L77.4324 31.6107H73.7362L73.0388 29.4266H67.9432L67.2458 31.6107H63.5674L68.6585 17.7231H68.6629ZM72.2036 26.8532L70.5021 21.1201H70.4621L68.7607 26.8532H72.2036Z" fill="white"/>
<path d="M78.8008 17.7231H85.6955C88.7964 17.7231 90.6933 19.1687 90.6933 22.2882C90.6933 24.0829 89.5694 25.524 87.8457 26.0342L91.0043 31.6152H87.1527L84.4427 26.6205H82.257V31.6152H78.8097V17.7276L78.8008 17.7231ZM82.2482 24.0426H85.4023C86.5085 24.0247 87.2415 23.4608 87.2415 22.1718C87.2415 20.8829 86.5085 20.3189 85.4023 20.2966H82.2482V24.0381V24.0426Z" fill="white"/>
<defs>
<linearGradient id="paint0_linear_138_554" x1="3.63376" y1="16.895" x2="14.9843" y2="16.895" gradientUnits="userSpaceOnUse">
<stop stop-color="#CC171E"/>
<stop offset="0.54" stop-color="#640000"/>
<stop offset="0.67" stop-color="#660000"/>
<stop offset="0.75" stop-color="#6E0202"/>
<stop offset="0.81" stop-color="#7C0506"/>
<stop offset="0.87" stop-color="#90090B"/>
<stop offset="0.91" stop-color="#A90E12"/>
<stop offset="0.96" stop-color="#C8141A"/>
<stop offset="1" stop-color="#ED1C24"/>
</linearGradient>
<linearGradient id="paint1_linear_138_554" x1="1.17713" y1="10.119" x2="6.45481" y2="10.119" gradientUnits="userSpaceOnUse">
<stop stop-color="#2376BC"/>
<stop offset="0.05" stop-color="#216FB4"/>
<stop offset="0.13" stop-color="#1C5BA0"/>
<stop offset="0.23" stop-color="#143C80"/>
<stop offset="0.34" stop-color="#091053"/>
<stop offset="0.37" stop-color="#050042"/>
<stop offset="0.46" stop-color="#060749"/>
<stop offset="0.6" stop-color="#0C1B5E"/>
<stop offset="0.77" stop-color="#143D81"/>
<stop offset="0.96" stop-color="#206BB1"/>
<stop offset="1" stop-color="#2376BC"/>
</linearGradient>
<linearGradient id="paint2_linear_138_554" x1="8.66722" y1="24.5572" x2="19.2359" y2="24.5572" gradientUnits="userSpaceOnUse">
<stop stop-color="#008742"/>
<stop offset="0.21" stop-color="#00602B"/>
<stop offset="0.22" stop-color="#00612C"/>
<stop offset="0.32" stop-color="#007638"/>
<stop offset="0.42" stop-color="#00823F"/>
<stop offset="0.52" stop-color="#008742"/>
<stop offset="0.75" stop-color="#004F1F"/>
<stop offset="1" stop-color="#008742"/>
</linearGradient>
<linearGradient id="paint3_linear_138_554" x1="-2.35425" y1="22.2032" x2="14.5667" y2="6.63249" gradientUnits="userSpaceOnUse">
<stop stop-color="#ED1C24"/>
<stop offset="0.69" stop-color="#D32329"/>
<stop offset="0.75" stop-color="#CE2127"/>
<stop offset="0.82" stop-color="#C11E23"/>
<stop offset="0.89" stop-color="#AB181B"/>
<stop offset="0.96" stop-color="#8C0F11"/>
<stop offset="1" stop-color="#7A0B0C"/>
</linearGradient>
<linearGradient id="paint4_linear_138_554" x1="-0.413102" y1="25.2194" x2="19.4992" y2="20.042" gradientUnits="userSpaceOnUse">
<stop stop-color="#50B848"/>
<stop offset="0.03" stop-color="#53B847"/>
<stop offset="0.18" stop-color="#64BC45"/>
<stop offset="0.34" stop-color="#6EBE44"/>
<stop offset="0.54" stop-color="#72BF44"/>
<stop offset="0.61" stop-color="#69B640"/>
<stop offset="0.72" stop-color="#529D37"/>
<stop offset="0.86" stop-color="#2C7628"/>
<stop offset="1" stop-color="#004817"/>
</linearGradient>
<linearGradient id="paint5_linear_138_554" x1="0.21773" y1="14.0754" x2="5.40372" y2="2.43162" gradientUnits="userSpaceOnUse">
<stop offset="0.11" stop-color="#00A2DD"/>
<stop offset="0.52" stop-color="#0076C0"/>
<stop offset="0.67" stop-color="#0079C2"/>
<stop offset="0.81" stop-color="#0084C9"/>
<stop offset="0.94" stop-color="#0097D6"/>
<stop offset="1" stop-color="#00A2DD"/>
</linearGradient>
<linearGradient id="paint6_linear_138_554" x1="9.31145" y1="26.5713" x2="18.2497" y2="26.5713" gradientUnits="userSpaceOnUse">
<stop stop-color="#50B848"/>
<stop offset="0.03" stop-color="#53B847"/>
<stop offset="0.18" stop-color="#64BC45"/>
<stop offset="0.34" stop-color="#6EBE44"/>
<stop offset="0.54" stop-color="#72BF44"/>
<stop offset="0.61" stop-color="#69B640"/>
<stop offset="0.72" stop-color="#529D37"/>
<stop offset="0.86" stop-color="#2C7628"/>
<stop offset="1" stop-color="#004817"/>
</linearGradient>
<linearGradient id="paint7_linear_138_554" x1="1.85709" y1="11.0859" x2="5.58878" y2="11.0859" gradientUnits="userSpaceOnUse">
<stop offset="0.11" stop-color="#00A2DD"/>
<stop offset="0.52" stop-color="#0076C0"/>
<stop offset="0.67" stop-color="#0079C2"/>
<stop offset="0.81" stop-color="#0084C9"/>
<stop offset="0.94" stop-color="#0097D6"/>
<stop offset="1" stop-color="#00A2DD"/>
</linearGradient>
</defs>
</svg>
