<svg width="350" height="75" viewBox="0 0 350 75" fill="none" xmlns="http://www.w3.org/2000/svg">
<path d="M11.5012 51.1379C17.5498 56.6541 23.3072 59.9096 31.6185 59.9096C36.2109 59.9096 44.6118 57.9428 44.6118 51.8162C44.6118 48.2894 41.9683 46.5034 36.8158 45.6217L22.3663 43.248C9.48496 41.1681 2.45064 34.2954 2.45064 23.9412C2.45064 6.98569 16.0264 0 30.8568 0C42.394 0 53.7071 4.72495 61.5255 13.4966L48.3306 23.0595C43.7605 17.4529 36.995 14.1974 29.6918 14.1974C25.6818 14.1974 19.8348 16.7521 19.8348 21.2962C19.8348 25.049 22.8591 26.9028 29.4902 28.0106L36.1213 29.0957C49.9883 31.3565 61.4135 35.6971 61.4135 49.1033C61.4135 70.1734 42.5732 74.1296 29.5798 74.1296C17.7738 74.1296 6.68467 70.2864 -2.7915 59.8418L11.5236 51.1605L11.5012 51.1379Z" fill="white"/>
<path d="M104.157 74.0844C82.0011 74.0844 69.0078 56.7446 69.0078 37.0309C69.0078 17.3173 82.0011 0 104.157 0C126.313 0 139.329 17.3399 139.329 37.0309C139.329 56.7219 126.335 74.0844 104.157 74.0844ZM104.157 14.7852C94.0088 14.7852 86.3696 21.2962 86.3696 37.0535C86.3696 47.3173 90.4692 59.3444 104.157 59.3444C117.038 59.3444 121.944 47.9051 121.944 37.0535C121.944 26.202 117.061 14.7852 104.157 14.7852Z" fill="white"/>
<path d="M196.141 25.3203C193.699 18.8094 187.74 14.7626 181.691 14.7626C172.126 14.7626 164.509 21.2736 164.509 37.0309C164.509 47.2947 168.608 59.3218 182.274 59.3218C186.956 59.3218 193.811 55.7724 196.522 49.465L210.299 56.1568C204.34 67.0987 193.99 74.0844 182.274 74.0844C160.118 74.0844 147.125 56.7446 147.125 37.0309C147.125 17.3173 159.244 0 180.907 0C194.573 0 203.556 6.69179 210.008 18.3346L196.141 25.3203Z" fill="white"/>
<path d="M237.361 1.9668H255.328L281.584 72.1175H262.945L259.428 61.0851H233.732L230.215 72.1175H211.666L237.339 1.9668H237.361ZM255.216 48.0859L246.636 19.1258H246.434L237.854 48.0859H255.216Z" fill="white"/>
<path d="M288.483 1.9668H323.252C338.889 1.9668 348.454 9.26899 348.454 25.0263C348.454 34.0919 342.787 41.3715 334.094 43.9487L350.023 72.1401H330.6L316.934 46.9103H305.912V72.1401H288.528V1.98941L288.483 1.9668ZM305.868 33.8884H321.773C327.351 33.798 331.048 30.9495 331.048 24.4386C331.048 17.9276 327.351 15.0791 321.773 14.966H305.868V33.8658V33.8884Z" fill="white"/>
</svg>
